<svg xmlns="http://www.w3.org/2000/svg" width="1200" height="760" viewBox="0 0 1200 760" fill="none">
  <rect width="1200" height="760" rx="26" fill="#E5E7EB"/>
  <rect x="34" y="34" width="1132" height="692" rx="20" fill="#FFFFFF"/>
  <rect x="74" y="74" width="1052" height="58" rx="12" fill="#F1F5F9"/>
  <rect x="108" y="94" width="180" height="18" rx="7" fill="#64748B"/>
  <rect x="74" y="156" width="1052" height="278" rx="16" fill="#F8FAFC"/>
  <rect x="102" y="196" width="420" height="22" rx="8" fill="#94A3B8"/>
  <rect x="102" y="230" width="580" height="14" rx="7" fill="#CBD5E1"/>
  <rect x="102" y="254" width="540" height="14" rx="7" fill="#CBD5E1"/>
  <rect x="102" y="284" width="220" height="38" rx="12" fill="#E2E8F0"/>
  <rect x="74" y="456" width="1052" height="230" rx="16" fill="#F8FAFC"/>
  <rect x="102" y="494" width="240" height="14" rx="7" fill="#94A3B8"/>
  <rect x="102" y="520" width="420" height="12" rx="6" fill="#CBD5E1"/>
  <rect x="102" y="542" width="390" height="12" rx="6" fill="#CBD5E1"/>
</svg>
