<svg xmlns="http://www.w3.org/2000/svg" width="1200" height="760" viewBox="0 0 1200 760" fill="none">
  <rect width="1200" height="760" rx="26" fill="#F1F5F9"/>
  <rect x="36" y="36" width="1128" height="688" rx="20" fill="#FFFFFF"/>
  <rect x="76" y="78" width="1048" height="52" rx="12" fill="#EEF2F7"/>
  <rect x="96" y="94" width="220" height="18" rx="8" fill="#6B7280"/>
  <rect x="76" y="158" width="1048" height="210" rx="16" fill="#F8FAFC"/>
  <rect x="104" y="196" width="260" height="18" rx="7" fill="#9CA3AF"/>
  <rect x="104" y="226" width="520" height="12" rx="6" fill="#D1D5DB"/>
  <rect x="104" y="248" width="500" height="12" rx="6" fill="#D1D5DB"/>
  <rect x="76" y="394" width="1048" height="290" rx="16" fill="#F8FAFC"/>
  <rect x="104" y="432" width="260" height="16" rx="8" fill="#9CA3AF"/>
  <rect x="104" y="462" width="440" height="12" rx="6" fill="#D1D5DB"/>
  <rect x="104" y="484" width="420" height="12" rx="6" fill="#D1D5DB"/>
  <rect x="104" y="520" width="180" height="36" rx="12" fill="#E5E7EB"/>
</svg>
