<svg xmlns="http://www.w3.org/2000/svg" width="1200" height="760" viewBox="0 0 1200 760" fill="none">
  <defs>
    <linearGradient id="k" x1="36" y1="36" x2="1120" y2="720" gradientUnits="userSpaceOnUse">
      <stop stop-color="#111827"/>
      <stop offset="1" stop-color="#312E81"/>
    </linearGradient>
  </defs>
  <rect width="1200" height="760" rx="26" fill="url(#k)"/>
  <rect x="36" y="36" width="1128" height="688" rx="20" fill="#0B1228"/>
  <rect x="76" y="78" width="1048" height="52" rx="12" fill="#121E39"/>
  <rect x="100" y="96" width="206" height="16" rx="7" fill="#E5E7EB"/>
  <rect x="938" y="88" width="162" height="34" rx="10" fill="#D946EF"/>
  <rect x="76" y="158" width="500" height="526" rx="16" fill="#0F1B35"/>
  <rect x="604" y="158" width="520" height="250" rx="16" fill="#0F1B35"/>
  <rect x="604" y="434" width="520" height="250" rx="16" fill="#0F1B35"/>
  <rect x="104" y="200" width="300" height="22" rx="8" fill="#E5E7EB"/>
  <rect x="104" y="236" width="430" height="12" rx="6" fill="#94A3B8"/>
  <rect x="104" y="258" width="390" height="12" rx="6" fill="#94A3B8"/>
  <rect x="104" y="294" width="190" height="40" rx="12" fill="#06B6D4"/>
</svg>
