<svg width="1200" height="720" viewBox="0 0 1200 720" fill="none" xmlns="http://www.w3.org/2000/svg">
  <defs>
    <linearGradient id="bgGrowth" x1="160" y1="40" x2="1080" y2="680" gradientUnits="userSpaceOnUse">
      <stop stop-color="#061A1A"/>
      <stop offset="1" stop-color="#123737"/>
    </linearGradient>
    <linearGradient id="chart" x1="168" y1="566" x2="1008" y2="214" gradientUnits="userSpaceOnUse">
      <stop stop-color="#2DD4BF"/>
      <stop offset="1" stop-color="#22D3EE"/>
    </linearGradient>
  </defs>
  <rect width="1200" height="720" rx="32" fill="url(#bgGrowth)"/>
  <rect x="72" y="72" width="1056" height="576" rx="26" stroke="rgba(255,255,255,0.2)" stroke-width="2"/>
  <rect x="132" y="116" width="250" height="46" rx="23" fill="rgba(45,212,191,0.22)"/>
  <text x="257" y="146" text-anchor="middle" fill="#CCFBF1" font-size="22" font-family="Inter, Arial, sans-serif" font-weight="700" letter-spacing="2">CRESCITA</text>
  <text x="132" y="220" fill="#D9FDF9" font-size="48" font-family="Inter, Arial, sans-serif" font-weight="700">Misura e migliora</text>
  <text x="132" y="272" fill="#8CE6DD" font-size="32" font-family="Inter, Arial, sans-serif">Ottimizzazione continua su dati reali.</text>
  <path d="M168 566H1032" stroke="rgba(255,255,255,0.14)" stroke-width="2"/>
  <path d="M168 496H1032" stroke="rgba(255,255,255,0.1)" stroke-width="2"/>
  <path d="M168 426H1032" stroke="rgba(255,255,255,0.1)" stroke-width="2"/>
  <path d="M168 356H1032" stroke="rgba(255,255,255,0.1)" stroke-width="2"/>
  <path d="M190 538L360 488L520 510L700 414L846 430L1010 280" stroke="url(#chart)" stroke-width="12" stroke-linecap="round" stroke-linejoin="round"/>
  <circle cx="1010" cy="280" r="22" fill="#5EEAD4"/>
  <path d="M976 254L1022 208L1038 224L992 270" fill="#99F6E4"/>
</svg>
